<svg id="Capa_1" data-name="Capa 1" xmlns="http://www.w3.org/2000/svg" viewBox="0 0 489.28 172.44"><defs><style>.cls-1{fill:#fff;stroke:#f15a24;stroke-linecap:round;stroke-linejoin:round;stroke-width:5px;}.cls-2{fill:#f15a24;}</style></defs><title>logo</title><path d="M166.14,583H148.21l-3.13,10.15h-14L151,538.85h12.3l20.06,54.29H169.31Zm-14.8-10.1H163l-5.85-18.83Z" transform="translate(-128.59 -538.1)"/><path d="M229.27,538.85v35.53a20.48,20.48,0,0,1-2.57,10.46,16.66,16.66,0,0,1-7.39,6.73,26,26,0,0,1-11.37,2.31q-9.91,0-15.62-5.14t-5.82-14.1V538.85h13.16v36q.22,8.91,8.28,8.91,4.06,0,6.15-2.23c1.4-1.49,2.09-3.92,2.09-7.27V538.85Z" transform="translate(-128.59 -538.1)"/><path d="M280.05,549H263.76v44.19H250.67V549h-16v-10.1h45.37Z" transform="translate(-128.59 -538.1)"/><path d="M330.5,567.11a32.07,32.07,0,0,1-2.94,14.06,21.88,21.88,0,0,1-8.37,9.41,23.32,23.32,0,0,1-12.36,3.3,23.6,23.6,0,0,1-12.31-3.19,21.69,21.69,0,0,1-8.37-9.11A31.11,31.11,0,0,1,283,568v-3.06a32.21,32.21,0,0,1,2.93-14.08,21.66,21.66,0,0,1,8.39-9.41,24.83,24.83,0,0,1,24.74,0,22.12,22.12,0,0,1,8.4,9.34,31.05,31.05,0,0,1,3,13.89Zm-13.31-2.27q0-8.1-2.7-12.29a8.66,8.66,0,0,0-7.74-4.19q-9.84,0-10.4,14.76l0,4q0,8,2.65,12.27a8.66,8.66,0,0,0,7.87,4.29,8.56,8.56,0,0,0,7.64-4.22q2.68-4.22,2.72-12.12Z" transform="translate(-128.59 -538.1)"/><path d="M354.44,538.85l12.12,37.77,12.08-37.77h17.23v54.29H382.74V580.46l1.27-26-13.12,38.63h-8.65l-13.17-38.67,1.27,26v12.68H337.25V538.85Z" transform="translate(-128.59 -538.1)"/><path d="M450.16,567.11a32.08,32.08,0,0,1-3,14.06,21.75,21.75,0,0,1-8.37,9.41,23.32,23.32,0,0,1-12.36,3.3,23.62,23.62,0,0,1-12.31-3.19,21.69,21.69,0,0,1-8.37-9.11A31.11,31.11,0,0,1,402.65,568v-3.06a32.21,32.21,0,0,1,2.93-14.08,21.72,21.72,0,0,1,8.39-9.41,24.83,24.83,0,0,1,24.74,0,22.14,22.14,0,0,1,8.41,9.34,31.32,31.32,0,0,1,3,13.89Zm-13.32-2.27q0-8.1-2.7-12.29a8.66,8.66,0,0,0-7.74-4.19q-9.84,0-10.4,14.76l0,4q0,8,2.65,12.27a8.67,8.67,0,0,0,7.87,4.29,8.56,8.56,0,0,0,7.64-4.22q2.69-4.22,2.72-12.12Z" transform="translate(-128.59 -538.1)"/><path d="M496.35,549H480.06v44.19H467V549H451v-10.1h45.37Z" transform="translate(-128.59 -538.1)"/><path d="M522,573.93H515v19.21H501.87V538.85h21.37q9.64,0,15.1,4.28t5.44,12.11a17.6,17.6,0,0,1-2.29,9.38,16.24,16.24,0,0,1-7.18,6l11.34,21.92v.56h-14ZM515,563.87h8.28a7.44,7.44,0,0,0,5.61-2,7.58,7.58,0,0,0,1.88-5.47,7.7,7.7,0,0,0-1.9-5.52,7.37,7.37,0,0,0-5.59-2H515Z" transform="translate(-128.59 -538.1)"/><path d="M565.63,593.14h-13V538.85h13Z" transform="translate(-128.59 -538.1)"/><path d="M589.42,583.07h26v10.07H573.09v-6.9L599,549h-26v-10.1h42.17v6.71Z" transform="translate(-128.59 -538.1)"/><path class="cls-1" d="M455.78,659.58l5.9-49.36h56.4v17.37H479.84l-2.19,19.17a26,26,0,0,1,6.27-2.47,28.5,28.5,0,0,1,7.58-1.06q14.38,0,22.11,8.51t7.72,23.9a34.28,34.28,0,0,1-4.14,16.8A28.52,28.52,0,0,1,505.56,704a36.72,36.72,0,0,1-17.7,4,39.42,39.42,0,0,1-17-3.74A30.42,30.42,0,0,1,458.37,694a24.87,24.87,0,0,1-4.44-14.74h22.4a12.62,12.62,0,0,0,3.38,8.4,10.69,10.69,0,0,0,8,3.11q11.26,0,11.26-16.66,0-15.42-13.78-15.41c-5.22,0-9.1,1.67-11.67,5Z" transform="translate(-128.59 -538.1)"/><path class="cls-1" d="M567.26,670.8l-9.55,10.47v25.45H534.45v-96.5h23.26v42.55l8.09-12.26,20.81-30.29h28.76l-32.6,42.68,32.6,53.82H587.8Z" transform="translate(-128.59 -538.1)"/><path class="cls-2" d="M431.64,657H133.4V610.22a2.41,2.41,0,1,0-4.81,0v48.91c0,.06,0,.12,0,.17s0,.11,0,.17A2.46,2.46,0,0,0,131,662H431.64a2.5,2.5,0,0,0,0-5Z" transform="translate(-128.59 -538.1)"/></svg>